Format : AVI
Format/Info : Audio Video Interleave
Format profile : OpenDML
File size : 891 MiB
Duration : 2h 12mn
Overall bit rate : 941 Kbps
Writing application : AVI-Mux GUI 1.17.8.3, Feb 16 201019:42:50

Video
ID : 0
Format : MPEG-4 Visual
Format profile : AdvancedSimple@L5
Format settings, BVOP : Yes
Format settings, QPel : No
Format settings, GMC : No warppoints
Format settings, Matrix : Default (H.263)
Codec ID : XVID
Codec ID/Hint : XviD
Duration : 2h 12mn
Bit rate : 488 Kbps
Width : 704 pixels
Height : 352 pixels
Display aspect ratio : 2.000
Frame rate : 23.976 fps
Resolution : 24 bits
Colorimetry : 4:2:0
Scan type : Progressive
Bits/(Pixel*Frame) : 0.082
Stream size : 462 MiB (52%)
Writing library : XviD 1.2.1 (UTC 2008-12-04)

Audio
ID : 1
Format : AC-3
Format/Info : Audio Coding 3
Codec ID : 2000
Duration : 2h 12mn
Bit rate mode : Constant
Bit rate : 448 Kbps
Channel(s) : 2 channels
Channel positions : L R
Sampling rate : 48.0 KHz
Stream size : 424 MiB (48%)
Alignment : Aligned on interleaves
Interleave, duration : 64 ms (1.53 video frames)
Interleave, preload duration : 192 ms

Starring
Janet Jackson
Thandie Newton
Whoopi Goldberg
Loretta Devine
Anika Noni Rose
Kimberly Elise
Kerry Washington
Phylicia Rashad

Retaining the play‘s poetic style, the film‘s lead cast consists of nine African-American women, seven of whom are based on the play‘s seven characters only known by color ("Lady in Red", "Lady in Blue", "Lady in Yellow" etc.). Like its source material, each character deals with a different personal conflict, such as love, abandonment, rape, infidelity, and abortion. The characters are represented by a color Jo (Red), Juanita (Green), Yasmine (Yellow), Tangie (Orange), Alice (White), Gilda (Gray), Crystal (Brown), Nyla (Purple), and Kelly (Blue). Each of their stories are different, but the characters interact within each others lives.
 
http://www.imdb.com/title/tt1405500/

screens
 
http://img812.imageshack.us/img812/5086/coloredgirlsxvidviceavi.jpg 
http://img535.imageshack.us/img535/5086/coloredgirlsxvidviceavi.jpg 
http://img191.imageshack.us/img191/5086/coloredgirlsxvidviceavi.jpg 
http://img193.imageshack.us/img193/5086/coloredgirlsxvidviceavi.jpg 